# xmcd CD database file
#
# Track frame offsets:
#	150
#	13961
#	31678
#	49897
#	62619
#	76996
#	92233
#	105783
#	122006
#	140141
#	154544
#	169973
#
# Disc length: 2448 seconds
#
# Revision: 1
# Processed by: cddbd v1.4PL0 Copyright (c) Steve Scherf et al.
# Submitted via: CDex 1.50
#
DISCID=94098e0c
DTITLE=Rio Preto, Ribeirão e Voninho - Trio Alto Astral
DYEAR=1900
DGENRE=Country
TTITLE0=Bom Demais da Conta
TTITLE1=Pé de Pano
TTITLE2=Só Quero Namorar
TTITLE3=Acabando com a Saldade
TTITLE4=Peão Azarado
TTITLE5=No calor do seu amor
TTITLE6=quero mais
TTITLE7=Não sou sem vergonha
TTITLE8=doce paixão
TTITLE9=Paixão e nada mais
TTITLE10=O bailão tá legal
TTITLE11=Escondido ninguém Vê
EXTD=
EXTT0=
EXTT1=
EXTT2=
EXTT3=
EXTT4=
EXTT5=
EXTT6=
EXTT7=
EXTT8=
EXTT9=
EXTT10=
EXTT11=
PLAYORDER=
